# AST/ASF file generated using VICON BodyLanguage
# -----------------------------------------------
:version 1.10
:name VICON
:units
  mass 1.0
  length 0.45
  angle deg
:documentation
   .ast/.asf automatically generated from VICON data using
   VICON BodyBuilder and BodyLanguage model FoxedUp or BRILLIANT.MOD
:root
   order TX TY TZ RX RY RZ
   axis XYZ
   position 0 0 0  
   orientation 0 0 0 
:bonedata
  begin
     id 1 
     name lhipjoint
     direction 0.606768 -0.715223 0.346827 
     length 2.41543 
     axis 0 0 0  XYZ
  end
  begin
     id 2 
     name lfemur
     direction 0.34202 -0.939693 0  
     length 7.2778  
     axis 0 0 20  XYZ
    dof rx ry rz
    limits (-160.0 20.0)
           (-70.0 70.0)
           (-60.0 70.0)
  end
  begin
     id 3 
     name ltibia
     direction 0.34202 -0.939693 0   
     length 7.61811   
     axis 0 0 20   XYZ
    dof rx
    limits (-10.0 170.0)
  end
  begin
     id 4 
     name lfoot
     direction 0.0823924 -0.226371 0.97055   
     length 2.33618   
     axis -90 7.62852e-016 20   XYZ
    dof rx rz
    limits (-45.0 90.0)
           (-70.0 20.0)
  end
  begin
     id 5 
     name ltoes
     direction 1.53554e-011 -4.21934e-011 1   
     length 1.17015   
     axis -90 7.62852e-016 20   XYZ
    dof rx
    limits (-90.0 20.0)
  end
  begin
     id 6 
     name rhipjoint
     direction -0.6077 -0.714582 0.346516   
     length 2.4176  
     axis 0 0 0  XYZ 
  end
  begin
     id 7 
     name rfemur
     direction -0.34202 -0.939693 0   
     length 7.28127   
     axis 0 0 -20   XYZ
    dof rx ry rz
    limits (-160.0 20.0)
           (-70.0 70.0)
           (-70.0 60.0)
  end
  begin
     id 8 
     name rtibia
     direction -0.34202 -0.939693 0   
     length 7.77648   
     axis 0 0 -20   XYZ
    dof rx
    limits (-10.0 170.0)
 end
 begin
     id 9 
     name rfoot
     direction -0.0809463 -0.222398 0.97159   
     length 2.37533  
     axis -90 -7.62852e-016 -20   XYZ
    dof rx rz
    limits (-45.0 90.0)
           (-20.0 70.0)
  end
  begin
     id 10 
     name rtoes
     direction -1.53568e-011 -4.21714e-011 1   
     length 1.18972   
     axis -90 -7.62852e-016 -20   XYZ
    dof rx
    limits (-90.0 20.0)
  end
  begin
     id 11 
     name lowerback
     direction 0.010968 0.991932 -0.126297   
     length 2.21698   
     axis 0 0 0   XYZ
    dof rx ry rz
    limits (-20.0 45.0)
           (-30.0 30.0)
           (-30.0 30.0)
  end
  begin
     id 12 
     name upperback
     direction 0.0167007 0.997503 -0.0686276   
     length 2.22371   
     axis 0 0 0   XYZ
    dof rx ry rz
    limits (-20.0 45.0)
           (-30.0 30.0)
           (-30.0 30.0)
  end
  begin
     id 13 
     name thorax
     direction 0.0111721 0.999885 -0.0102878   
     length 2.25242   
     axis 0 0 0   XYZ
    dof rx ry rz
    limits (-20.0 45.0)
           (-30.0 30.0)
           (-30.0 30.0)
  end
  begin
     id 14 
     name lowerneck
     direction -0.0120265 0.990428 0.137508   
     length 1.57674   
     axis 0 0 0   XYZ
    dof rx ry rz
    limits (-20.0 45.0)
           (-30.0 30.0)
           (-30.0 30.0)
  end
  begin
     id 15 
     name upperneck
     direction 0.0175669 0.998907 0.0433089   
     length 1.5618   
     axis 0 0 0   XYZ
    dof rx ry rz
    limits (-20.0 45.0)
           (-30.0 30.0)
           (-30.0 30.0)
  end
  begin
     id 16
     name head
     direction 0.00754609 0.99997 0.00185367  
     length 1.60579  
     axis 0 0 0   XYZ
    dof rx ry rz
    limits (-20.0 45.0)
           (-30.0 30.0)
           (-30.0 30.0)
  end
  begin
     id 17 
     name lclavicle
     direction 0.885866 0.429166 -0.176231  
     length 3.44967  
     axis 0 0 0   XYZ
    dof ry rz
    limits (-20.0 10.0)
           (0.0 20.0)
  end
  begin
     id 18 
     name lhumerus
     direction 1 -4.48973e-011 -1.90255e-027   
     length 5.20607   
     axis 180 -30 -90   XYZ
    dof rx ry rz
    limits (-60.0 90.0)
           (-90.0 90.0)
           (-90.0 90.0)
  end
  begin
     id 19
     name lradius
     direction 1 -4.48956e-011 9.87925e-027   
     length 3.39961   
     axis 180 -30 -90   XYZ
    dof rx
    limits (-10.0 170.0)
  end
  begin
     id 20
     name lwrist
     direction 1 -4.48985e-011 1.73247e-026   
     length 1.6998   
     axis -9.60847e-015 90 90   XYZ
    dof ry
    limits (-180.0 0.0)
 end
  begin
     id 21 
     name lhand
     direction 1 -4.48798e-011 3.46119e-026   
     length 0.519693   
     axis -2.21073e-014 90 90   XYZ
    dof rx rz
    limits (-90.0 90.0)
           (-45.0 45.0)
  end
  begin
     id 22 
     name lfingers
     direction 1 -4.48938e-011 6.92797e-026   
     length 0.41899   
     axis -4.42155e-014 90 90   XYZ
    dof rx
    limits (0.0 90.0)
  end
  begin
     id 23
     name lthumb
     direction 0.707107 -6.34952e-011 0.707107   
     length 0.601588   
     axis -90 45 6.0103e-014   XYZ
    dof rx rz
    limits (-45.0 45.0)
           (-45.0 45.0)
  end
  begin
     id 24 
     name rclavicle
     direction -0.866736 0.456792 -0.200276   
     length 3.45032  
     axis 0 0 0   XYZ 
    dof ry rz
    limits (-10.0 20.0)
           (-20.0 0.0)
  end
  begin
     id 25 
     name rhumerus
     direction -1 -4.4897e-011 8.65094e-028  
     length 5.32214   
     axis 180 30 90   XYZ
    dof rx ry rz
    limits (-90.0 60.0)
           (-90.0 90.0)
           (-90.0 90.0)
  end
  begin
     id 26 
     name rradius
     direction -1 -4.48987e-011 1.08427e-026   
     length 3.51208   
     axis 180 30 90   XYZ
    dof rx
    limits (-10.0 170.0)
  end
  begin
     id 27 
     name rwrist
     direction -1 -4.48961e-011 1.73222e-026   
     length 1.75604   
     axis -9.60847e-015 -90 -90   XYZ
    dof ry
    limits (-180.0 0.0)
  end
  begin
     id 28
     name rhand
     direction -1 -4.48895e-011 3.46314e-026   
     length 0.586681   
     axis -2.21073e-014 -90 -90   XYZ
    dof rx rz
    limits (-90.0 90.0)
           (-45.0 45.0)
  end
  begin
     id 29
     name rfingers
     direction -1 -4.48968e-011 6.92916e-026   
     length 0.472997   
     axis -4.42155e-014 -90 -90   XYZ
    dof rx
    limits (0.0 90.0)
  end
  begin
     id 30
     name rthumb
     direction -0.707107 -6.34848e-011 0.707107   
     length 0.679133   
     axis -90 -45 -6.0103e-014   XYZ
    dof rx rz
    limits (-45.0 45.0)
           (-45.0 45.0)
  end
:hierarchy
  begin
    root lhipjoint rhipjoint lowerback
    lhipjoint lfemur
    lfemur ltibia
    ltibia lfoot
    lfoot ltoes
    rhipjoint rfemur
    rfemur rtibia
    rtibia rfoot
    rfoot rtoes
    lowerback upperback
    upperback thorax
    thorax lowerneck lclavicle rclavicle
    lowerneck upperneck
    upperneck head
    lclavicle lhumerus
    lhumerus lradius
    lradius lwrist
    lwrist lhand lthumb
    lhand lfingers
    rclavicle rhumerus
    rhumerus rradius
    rradius rwrist
    rwrist rhand rthumb
    rhand rfingers
  end

#!OML:ASF H:\Dans Jumps\Project 1\Capture day 1\Session 1\subject.ASF
:FULLY-SPECIFIED
:DEGREES
62
root 0.352491 17.5027 -13.7957 8.36735 -1.36799 -2.45198
lowerback -1.28005 -0.470651 1.54323
upperback 3.43875 -0.753784 1.89081
thorax 4.26681 -0.358714 1.04808
lowerneck -14.4434 0.734569 -2.1397
upperneck 30.8841 1.58758 0.230418
head 12.6321 0.47526 0.694648
rclavicle -2.48481e-016 9.34288e-015
rhumerus -19.9106 -16.5478 -77.7655
rradius 25.7434
rwrist 30.3017
rhand -18.6807 -26.7753
rfingers 7.12502
rthumb 7.61331 -56.6182
lclavicle -2.48481e-016 9.34288e-015
lhumerus -21.4399 -1.71828 86.5378
lradius 23.0012
lwrist 6.5753
lhand -23.2833 -4.66737
lfingers 7.12502
lthumb 3.16947 25.2888
rfemur -15.9012 -3.56567 21.3489
rtibia 22.3027
rfoot -14.691 -1.78858
rtoes 2.52198
lfemur -15.4958 8.09769 -17.8891
ltibia 21.4977
lfoot -11.5605 7.15835
ltoes -8.35372
63
root 0.352881 17.5026 -13.7963 8.36557 -1.33497 -2.44805
lowerback -1.26963 -0.471634 1.52857
upperback 3.43407 -0.754269 1.89409
thorax 4.25624 -0.359548 1.05974
lowerneck -14.4745 0.718458 -2.16924
upperneck 30.9081 1.56038 0.272821
head 12.6482 0.465035 0.712432
rclavicle 1.03368e-014 -1.39149e-015
rhumerus -19.8379 -16.4918 -77.7671
rradius 25.8257
rwrist 30.2106
rhand -18.7067 -26.7453
rfingers 7.12502
rthumb 7.58829 -56.5892
lclavicle 1.03368e-014 -1.39149e-015
lhumerus -21.3555 -1.86249 86.5165
lradius 23.2564
lwrist 6.84382
lhand -23.4007 -4.68285
lfingers 7.12502
lthumb 3.05611 25.275
rfemur -15.9036 -3.56943 21.3445
rtibia 22.3151
rfoot -14.697 -1.81981
rtoes 2.5025
lfemur -15.4974 8.10896 -17.8937
ltibia 21.4883
lfoot -11.5728 7.11324
ltoes -8.35876
64
root 0.353372 17.5024 -13.797 8.3574 -1.31309 -2.43612
lowerback -1.26238 -0.470383 1.5041
upperback 3.441 -0.751703 1.89378
thorax 4.25958 -0.359071 1.0733
lowerneck -14.5174 0.705191 -2.17529
upperneck 30.92 1.53836 0.291602
head 12.6622 0.456867 0.717857
rclavicle -5.36719e-015 1.37161e-014
rhumerus -19.7399 -16.439 -77.782
rradius 25.9035
rwrist 30.1349
rhand -18.7277 -26.7379
rfingers 7.12502
rthumb 7.56799 -56.5825
lclavicle -5.36719e-015 1.37161e-014
lhumerus -21.2495 -1.97632 86.4799
lradius 23.4933
lwrist 7.09345
lhand -23.4247 -4.45896
lfingers 7.12502
lthumb 3.03299 25.4992
rfemur -15.9013 -3.55848 21.3296
rtibia 22.329
rfoot -14.701 -1.85669
rtoes 2.48721
lfemur -15.4895 8.11903 -17.9066
ltibia 21.4769
lfoot -11.5822 7.07892
ltoes -8.36192
65
root 0.354135 17.5023 -13.7978 8.34899 -1.29342 -2.42582
lowerback -1.25291 -0.46881 1.48199
upperback 3.44763 -0.748752 1.89431
thorax 4.26135 -0.358346 1.08644
lowerneck -14.5432 0.695747 -2.16256
upperneck 30.9148 1.52284 0.2885
head 12.6659 0.451152 0.712326
rclavicle 1.2921e-015 -1.68967e-014
rhumerus -19.6413 -16.374 -77.8003
rradius 25.9856
rwrist 30.055
rhand -18.7617 -26.7184
rfingers 7.12502
rthumb 7.53518 -56.5642
lclavicle 1.2921e-015 -1.68967e-014
lhumerus -21.1401 -2.06116 86.4327
lradius 23.7143
lwrist 7.31469
lhand -23.3718 -4.03866
lfingers 7.12502
lthumb 3.08408 25.9188
rfemur -15.9001 -3.54714 21.3157
rtibia 22.3434
rfoot -14.7039 -1.89259
rtoes 2.48557
lfemur -15.4813 8.12558 -17.9189
ltibia 21.4654
lfoot -11.5883 7.0518
ltoes -8.36916
66
root 0.355071 17.5022 -13.7987 8.33879 -1.27755 -2.41795
lowerback -1.24325 -0.4666 1.4615
upperback 3.4566 -0.745117 1.89612
thorax 4.26544 -0.357246 1.10004
lowerneck -14.5652 0.686001 -2.15176
upperneck 30.9051 1.50771 0.28398
head 12.6669 0.445261 0.706577
rclavicle 1.05356e-014 -1.45113e-014
rhumerus -19.537 -16.3015 -77.823
rradius 26.0701
rwrist 29.9636
rhand -18.8009 -26.6975
rfingers 7.12502
rthumb 7.49737 -56.5447
lclavicle 1.05356e-014 -1.45113e-014
lhumerus -21.0224 -2.12078 86.3747
lradius 23.916
lwrist 7.50905
lhand -23.3257 -3.62865
lfingers 7.12502
lthumb 3.12857 26.3281
rfemur -15.8973 -3.52938 21.3035
rtibia 22.3582
rfoot -14.7055 -1.93245
rtoes 2.48544
lfemur -15.4707 8.12885 -17.929
ltibia 21.4552
lfoot -11.5944 7.03248
ltoes -8.36677
67
root 0.356174 17.502 -13.7997 8.32896 -1.26297 -2.41477
lowerback -1.23079 -0.463406 1.44674
upperback 3.46337 -0.74026 1.89873
thorax 4.26556 -0.355375 1.11133
lowerneck -14.5747 0.675917 -2.14589
upperneck 30.89 1.4914 0.284588
head 12.663 0.43906 0.703335
rclavicle 1.59028e-015 -7.15625e-015
rhumerus -19.4401 -16.2164 -77.8482
rradius 26.1657
rwrist 29.8543
rhand -18.8601 -26.6572
rfingers 7.12502
rthumb 7.44021 -56.5064
lclavicle 1.59028e-015 -7.15625e-015
lhumerus -20.9035 -2.16319 86.307
lradius 24.1009
lwrist 7.67512
lhand -23.3585 -3.43474
lfingers 7.12502
lthumb 3.0969 26.5225
rfemur -15.8951 -3.50972 21.2961
rtibia 22.3714
rfoot -14.7058 -1.97621
rtoes 2.46857
lfemur -15.463 8.1297 -17.9348
ltibia 21.4502
lfoot -11.6015 7.01776
ltoes -8.35163
68
root 0.357418 17.5017 -13.801 8.32293 -1.24744 -2.41563
lowerback -1.21685 -0.460734 1.43683
upperback 3.46496 -0.736161 1.90314
thorax 4.25945 -0.353772 1.12173
lowerneck -14.5692 0.666552 -2.14816
upperneck 30.8713 1.47628 0.290544
head 12.6543 0.433215 0.703591
rclavicle 6.95746e-016 7.15625e-015
rhumerus -19.3554 -16.1151 -77.8737
rradius 26.2742
rwrist 29.72
rhand -18.9199 -26.6118
rfingers 7.12502
rthumb 7.38249 -56.463
lclavicle 6.95746e-016 7.15625e-015
lhumerus -20.7863 -2.19199 86.232
lradius 24.275
lwrist 7.84491
lhand -23.4639 -3.44356
lfingers 7.12502
lthumb 2.99512 26.5151
rfemur -15.8962 -3.48919 21.2929
rtibia 22.3831
rfoot -14.7058 -2.0227
rtoes 2.44942
lfemur -15.4629 8.12817 -17.9376
ltibia 21.4511
lfoot -11.6092 7.00638
ltoes -8.3357
